<svg xmlns="http://www.w3.org/2000/svg" xmlns:xlink="http://www.w3.org/1999/xlink" width="458.718" height="288.522" viewBox="0 0 458.718 288.522">
  <defs>
    <clipPath id="clip-path">
      <path id="Intersection_244" data-name="Intersection 244" d="M0,288.522V0H458.718V288.522Z" transform="translate(0 0)" fill="none"/>
    </clipPath>
    <clipPath id="clip-path-2">
      <path id="Intersection_245" data-name="Intersection 245" d="M212.137,251.626c-8.4-.386-18.283-7.388-37.359-14.274,0,0,8.76-3.291,8.76-5.656-19.234,6.491-24.561,4.034-24.561,4.034s-.371-.234-.513-.325c-6.624-4.726-26.881-9.732-41.389-12.84v.142a104.893,104.893,0,0,0-12.1-2.457v-.142c-19.835-3.754-38.561-9.452-43.011-15.709-3.058-4.267-32.862-17.057-34.485-19.651C5.143,182.661,22.058,92.926,0,77.863c0,0,29.292-10.195,46.069-17.194C63.914,53.206,86.624,41.3,105.766,41.3h.138c1.468,0,2.936.09,4.356.225-1.068-1.528-3.009-4.677-3.843-6.019,15.805-5.7,38.423-6.816,49.686-16.268,11.4-9.5,30.5-9.411,56.543-19.143L212.972,0h.138c11.68,4.864,54.554,17.937,64.056,23.172,19.234,10.616,50.382,10.892,73.88,26.743a.142.142,0,0,0-.092.046l-1.068,5.748,14.183-1.573.467.138c4.121,1.251,8.018,2.457,11.63,3.612a5.931,5.931,0,0,1,1.251-.83A4.385,4.385,0,0,0,377,58.12a10.55,10.55,0,0,1,3.988-2.04,13.194,13.194,0,0,0-2.5,2.549,11.641,11.641,0,0,1,4.451-2.269,16.407,16.407,0,0,0-2.92,2.782c1.156.367,2.315.738,3.429,1.11a17.256,17.256,0,0,1,2.966-.463c-.651.234-1.3.509-1.948.788,5.794,1.9,10.846,3.708,15.3,5.331a10.824,10.824,0,0,1,4.451-2.457,14.02,14.02,0,0,0-2.227,2.177,4.939,4.939,0,0,1,1.76,1.76c.371.142.743.279,1.114.417a11.665,11.665,0,0,1,5.469-3.429,16.314,16.314,0,0,0-3.613,4.126c3.938,1.531,7.275,2.966,10.057,4.217a5.414,5.414,0,0,1,1.714-1.3,4.191,4.191,0,0,0-.417,1.064,10.5,10.5,0,0,1,3.984-2.036,12.372,12.372,0,0,0-1.852,2.086,11.069,11.069,0,0,1,3.8-1.81,17.347,17.347,0,0,0-3.617,3.708c.188.092.371.188.559.279.972-.279,1.76-.463,1.669-.279,0,0-.371.234-.976.651l.188.092.275.138.188.092a15.535,15.535,0,0,1,5.285-1.155,20.592,20.592,0,0,0-3.947,1.828,41.122,41.122,0,0,1,3.947,2.343c-11.45,13.9-.6,88.759-4.267,92.279-12.931,12.606-73.692,27.3-94.178,33.233.229,1.481-2.365,2.5,5.514,3.012h.184c-14.412,11.075-24.795,11.309-44.492,15.989-16.085,3.8-20.907,9.965-35.924,15.851-7.692,3.012-31.469,11.959-40.183,12.794-.216.02-.434.035-.652.046ZM402.17,66.7Zm-.7-.279.325.138.322.123a6.187,6.187,0,0,0-.23-.815Z" transform="translate(0 0)" fill="none"/>
    </clipPath>
  </defs>
  <g id="Group_509" data-name="Group 509" transform="translate(-103.313 -408.24)">
    <g id="Group_498" data-name="Group 498" transform="translate(103.313 408.24)" clip-path="url(#clip-path)">
      <path id="Path_2246" data-name="Path 2246" d="M685.728,189.478c-23.545-15.851-54.645-16.176-73.88-26.743-9.548-5.237-52.7-18.4-64.193-23.174-26.234,9.872-45.422,9.687-56.87,19.281C479.521,168.3,456.9,169.362,441.1,175.109c.881,1.344,2.874,4.589,3.893,6.025-20.023-2.178-44.959,11.077-64.24,19.142-16.825,7-46.071,17.2-46.071,17.2,22.062,15.063,5.145,104.795,27.485,106.88,1.576,2.642,31.425,15.388,34.484,19.652,4.449,6.3,23.267,12,43.151,15.759,11.495,2.178,44.541,8.945,53.348,15.3,4.032,2.92,25.075-3.754,25.075-3.754,0,2.41-8.76,5.7-8.76,5.7,20.672,7.508,30.544,15.063,39.443,14.229,8.714-.788,32.444-9.78,40.185-12.792,15.017-5.84,19.791-12,35.92-15.851,19.7-4.681,30.081-4.913,44.5-15.944-8.111-.51-15.388-1.622-23.731-1.529,20.486-5.933,99.28-22.108,112.257-34.715,3.662-3.569-7.184-78.422,4.264-92.28-6.3-4.218-22.757-12.051-63.5-24.379l-25.492,2.827a128.26,128.26,0,0,0,12.468-7.045h0Z" transform="translate(-317.02 -102.711)" fill="#565759"/>
      <path id="Path_2247" data-name="Path 2247" d="M525.294,189.478c-23.545-15.851-54.646-16.176-73.88-26.743-9.548-5.237-52.7-18.4-64.193-23.174-15.388,5.794-6.211,86.394.51,156.056.649,6.906-2.827,18.725-2.132,25.26,1.344,12.746,2.688,24.518,3.847,34.622,2.5,21.228-3.152,35.92-.973,35.735,8.714-.788,32.444-9.78,40.185-12.792,15.017-5.84,19.791-12,35.92-15.851,19.7-4.681,30.08-4.913,44.495-15.944-8.111-.51-5.515-1.53-5.7-3.013,20.486-5.933,81.25-20.625,94.181-33.232,3.662-3.569-7.184-78.422,4.264-92.28-6.3-4.218-22.758-12.051-63.5-24.379l-25.492,2.827a128.242,128.242,0,0,0,12.468-7.045h0Z" transform="translate(-156.587 -102.711)" fill="#c4c6c8"/>
      <path id="Path_2248" data-name="Path 2248" d="M379.764,174.246l2.92,72.768a106.207,106.207,0,0,0-12.1-2.456s1.437-15.851-.325-22.989c-2.874-11.773-16.593-48.852-16.593-48.852l7.416-1.437,18.679,2.966h0Z" transform="translate(-247.993 12.587)" fill="#c4c6c8" fill-rule="evenodd"/>
      <path id="Path_2249" data-name="Path 2249" d="M391.64,179.926l-2.92,55.433c3.383-.927,6.164.232,7.879-6.906,2.874-11.773,22.016-45.1,22.016-45.1l-8.3-6.4-18.679,2.966Z" transform="translate(-120.59 33.233)" fill="#565759" fill-rule="evenodd"/>
      <path id="Path_2250" data-name="Path 2250" d="M417.58,166.383l-2.92,55.433c3.383-.927,6.164.232,7.879-6.906,1.3-5.423,2.549,1.02,5.469-8.575,1.3-4.31-.7-19.142,4.728-21.877,13.951-6.952,6.674-20.208,6.674-20.208l-3.2-.881-18.679,2.966h0Z" transform="translate(-26.3 -16.165)" fill="#565759" fill-rule="evenodd"/>
      <path id="Path_2251" data-name="Path 2251" d="M363.638,161.845l1.715,41.065-8.3-1.483L344.45,160.964l5.469-.834,13.719,1.715Z" transform="translate(-281.507 -27.942)" fill="#c4c6c8" fill-rule="evenodd"/>
      <path id="Path_2252" data-name="Path 2252" d="M401.3,170.006l.973,2.086,24.843.139-8.667,40.787.7,35.457,16.268-86.487-14.832-.788L401.3,170.006Z" transform="translate(-74.862 -24.053)" fill="#565759" fill-rule="evenodd"/>
      <path id="Path_2253" data-name="Path 2253" d="M403.05,158.966l.927,2.086,24.843.139-8.667,40.833.741,35.411,16.222-86.441-14.832-.834-19.235,8.806Z" transform="translate(-68.501 -64.182)" fill="#565759" fill-rule="evenodd"/>
      <path id="Path_2254" data-name="Path 2254" d="M392.654,170.115l3.708,3.94-11.541,2.225-1.066,28.736,9.872,61.412c-19.235,6.489-24.611,4.079-24.611,4.079s10.892-21.321,13.812-44.588L368.97,174.564l9.965-6.164,13.719,1.715Z" transform="translate(-192.379 2.118)" fill="#c4c6c8" fill-rule="evenodd"/>
      <path id="Path_2255" data-name="Path 2255" d="M685.728,189.478c-23.545-15.851-54.645-16.176-73.88-26.743-9.548-5.237-52.7-18.4-64.193-23.174-26.234,9.872-45.422,9.687-56.87,19.281C479.521,168.3,456.9,169.362,441.1,175.109c.881,1.344,2.874,4.589,3.893,6.025-20.023-2.178-44.959,11.077-64.24,19.142-16.825,7-46.071,17.2-46.071,17.2,22.062,15.063,40.973,17.659,63.313,19.745,1.576,2.642-4.4,6.721-1.344,10.985,9.455,13.3,79.767,19,96.545,31.054,4.032,2.92,25.075-3.754,25.075-3.754,0,2.41-8.76,5.7-8.76,5.7,20.672,7.509,30.544,15.063,39.443,14.229,8.714-.788,32.444-9.78,40.185-12.792,15.017-5.84,19.791-12,35.92-15.851,19.7-4.681,30.081-4.913,44.5-15.944-8.111-.51-15.388-1.622-23.731-1.53,20.486-5.933,44.634-1.761,65.167-9.455,16.268-6.118,32.676-19.467,51.355-21.738-6.3-4.218-22.757-12.051-63.5-24.379l-25.492,2.827a128.247,128.247,0,0,0,12.468-7.045h0Z" transform="translate(-317.02 -102.711)" fill="#fff"/>
      <path id="Path_2256" data-name="Path 2256" d="M366.535,168.12s-24.287,4.357-21.738,6.489c3.2,2.688,32.537,4.681,40.88,9.594,2.225,1.3,6.025-.881,9.038-.7,4.635.324,18.771,2.5,18.771,2.5L366.535,168.12Z" transform="translate(-280.927 1.101)" fill="#acaeb0" fill-rule="evenodd"/>
      <path id="Path_2257" data-name="Path 2257" d="M446.444,160.8s18.354,1.854,15.852,3.986c-3.2,2.688-9.687,9.224-23.638,12.19-2.874.6-18.586-.788-21.6-.6-4.635.324.973-5.284.973-5.284,5.377-5.1,10.707-3.059,18.447-5.979,1.947,4.125,6.072-2.271,9.965-4.31h0Z" transform="translate(-24.249 -25.507)" fill="#acaeb0" fill-rule="evenodd"/>
      <path id="Path_2258" data-name="Path 2258" d="M417.788,175.4s24.287,4.357,21.738,6.489c-3.2,2.688-10.614,4.589-24.565,7.6-2.874.6-16.917-.093-19.93.093a5.348,5.348,0,0,1-5.7-3.847l28.458-10.289h0Z" transform="translate(-118.372 27.563)" fill="#acaeb0" fill-rule="evenodd"/>
      <path id="Path_2259" data-name="Path 2259" d="M358.3,161.054a14.119,14.119,0,0,1,3.893,3.43,11.234,11.234,0,0,0,3.94-.139c.046-.185.556.51.7.371a24.131,24.131,0,0,1,2.734-3.43c.139-.417-2.92,1.159-2.966,1.344-.7,2.086,1.53-3.94,2.642-5.33a8.142,8.142,0,0,0-3.754,4.218,4.966,4.966,0,0,0-1.622-3.244,8.807,8.807,0,0,1,.371,3.2,8.083,8.083,0,0,0-3.708-3.847,18.514,18.514,0,0,1,3.245,6.489,8.61,8.61,0,0,0-5.377-3.059h0Z" transform="translate(-231.163 -38.229)" fill="#898d91"/>
      <path id="Path_2260" data-name="Path 2260" d="M369.948,161.054a14.122,14.122,0,0,0-3.893,3.43,10.765,10.765,0,0,1-3.847.093,19.815,19.815,0,0,0-3.2-7.277,8.141,8.141,0,0,1,3.754,4.218,4.966,4.966,0,0,1,1.622-3.244,8.8,8.8,0,0,0-.371,3.2,8.082,8.082,0,0,1,3.708-3.847,18.52,18.52,0,0,0-3.244,6.489,8.61,8.61,0,0,1,5.377-3.059h0Z" transform="translate(-228.582 -38.229)" fill="#bdbfc3"/>
      <path id="Path_2261" data-name="Path 2261" d="M366.878,162.654a14.122,14.122,0,0,0-3.893,3.43,10.762,10.762,0,0,1-3.847.093,19.816,19.816,0,0,0-3.2-7.277,8.142,8.142,0,0,1,3.754,4.218,4.967,4.967,0,0,1,1.622-3.244,8.8,8.8,0,0,0-.371,3.2,8.081,8.081,0,0,1,3.708-3.847,18.518,18.518,0,0,0-3.245,6.489,8.61,8.61,0,0,1,5.377-3.059h0Z" transform="translate(-239.742 -32.413)" fill="#bdbfc3"/>
      <path id="Path_2262" data-name="Path 2262" d="M368.089,162.835a4.821,4.821,0,0,1,1.483-.973,16.116,16.116,0,0,0-1.854,3.2v.927a8.082,8.082,0,0,1,3.708-3.847,18.52,18.52,0,0,0-3.244,6.489,8.61,8.61,0,0,1,5.377-3.059,14.122,14.122,0,0,0-3.893,3.43,45.881,45.881,0,0,1-7.138,0c-.278-.325-2.642-.232-2.225-.371,1.576-.371,1.251-.788,1.159-.881a13.361,13.361,0,0,0-2.781-2.178c1.808.139,2.271-1.02,3.847.742-.742-2.6-.371-2.6-1.715-4.218a8.083,8.083,0,0,1,3.708,3.847v-.927c-.556-1.251.6-3.522-.093-4.4.51.232,1.3,4.125,1.668,4.774a11.132,11.132,0,0,1,1.205-1.808,4.325,4.325,0,0,1,.742-.834h0Z" transform="translate(-229.782 -26.197)" fill="#bdbfc3"/>
      <path id="Path_2263" data-name="Path 2263" d="M363.009,164.055a4.821,4.821,0,0,1,1.483-.973,16.124,16.124,0,0,0-1.854,3.2v.927a8.083,8.083,0,0,1,3.708-3.847,18.517,18.517,0,0,0-3.244,6.489,8.61,8.61,0,0,1,5.376-3.059,14.119,14.119,0,0,0-3.893,3.43,45.884,45.884,0,0,1-7.138,0c-.278-.325-2.642-.232-2.225-.371,1.576-.371,1.251-.788,1.159-.881a13.353,13.353,0,0,0-2.781-2.178c1.808.139,2.271-1.02,3.847.742-.742-2.6-.371-2.549-1.715-4.218a8.083,8.083,0,0,1,3.708,3.847v-.927c-.556-1.251.6-3.522-.093-4.4.51.232,1.3,4.125,1.668,4.774a11.122,11.122,0,0,1,1.205-1.808,4.319,4.319,0,0,1,.742-.834h0Z" transform="translate(-248.247 -21.763)" fill="#bdbfc3"/>
      <path id="Path_2264" data-name="Path 2264" d="M345.57,157.564a14.121,14.121,0,0,1,3.893,3.43,11.233,11.233,0,0,0,3.94-.139c.046-.185.556.51.7.371a24.13,24.13,0,0,1,2.735-3.43c.139-.417-2.92,1.159-2.966,1.344-.7,2.086,1.529-3.94,2.642-5.33a8.143,8.143,0,0,0-3.754,4.218,4.966,4.966,0,0,0-1.622-3.244,8.8,8.8,0,0,1,.371,3.2,8.083,8.083,0,0,0-3.708-3.847,18.518,18.518,0,0,1,3.245,6.489,8.611,8.611,0,0,0-5.376-3.059h0Z" transform="translate(-277.436 -50.914)" fill="#898d91"/>
      <path id="Path_2265" data-name="Path 2265" d="M357.218,157.564a14.12,14.12,0,0,0-3.893,3.43,10.765,10.765,0,0,1-3.847.093,19.814,19.814,0,0,0-3.2-7.277,8.143,8.143,0,0,1,3.754,4.218,4.966,4.966,0,0,1,1.622-3.244,8.8,8.8,0,0,0-.371,3.2,8.083,8.083,0,0,1,3.708-3.847,18.518,18.518,0,0,0-3.245,6.489,8.611,8.611,0,0,1,5.377-3.059h0Z" transform="translate(-274.855 -50.914)" fill="#bdbfc3"/>
      <path id="Path_2266" data-name="Path 2266" d="M348.05,170.614a14.12,14.12,0,0,1,3.893,3.43,11.233,11.233,0,0,0,3.94-.139c.047-.185.556.51.7.371a24.133,24.133,0,0,1,2.735-3.43c.139-.417-2.92,1.159-2.966,1.344-.7,2.086,1.529-3.94,2.642-5.33a8.143,8.143,0,0,0-3.754,4.218,4.81,4.81,0,0,0-1.668-3.244,8.806,8.806,0,0,1,.371,3.2,8.082,8.082,0,0,0-3.708-3.847,18.514,18.514,0,0,1,3.244,6.489,8.61,8.61,0,0,0-5.376-3.059h0Z" transform="translate(-268.421 -3.479)" fill="#898d91"/>
      <path id="Path_2267" data-name="Path 2267" d="M359.7,170.614a14.12,14.12,0,0,0-3.893,3.43,10.763,10.763,0,0,1-3.847.093,19.817,19.817,0,0,0-3.2-7.277,8.143,8.143,0,0,1,3.754,4.218,4.967,4.967,0,0,1,1.622-3.244,8.8,8.8,0,0,0-.371,3.2,8.082,8.082,0,0,1,3.708-3.847,18.518,18.518,0,0,0-3.244,6.489,8.61,8.61,0,0,1,5.377-3.059h0Z" transform="translate(-265.84 -3.479)" fill="#bdbfc3"/>
      <path id="Path_2268" data-name="Path 2268" d="M361.046,171.744a14.123,14.123,0,0,0-3.893,3.43,11.228,11.228,0,0,1-3.94-.139c-.046-.185-.556.51-.7.371a24.137,24.137,0,0,0-2.735-3.43c-.139-.417,2.92,1.159,2.966,1.344.7,2.086-1.529-3.94-2.642-5.33a8.142,8.142,0,0,1,3.754,4.218,4.966,4.966,0,0,1,1.622-3.244,8.8,8.8,0,0,0-.371,3.2,8.08,8.08,0,0,1,3.708-3.847,18.519,18.519,0,0,0-3.244,6.489,8.61,8.61,0,0,1,5.377-3.059h0Z" transform="translate(-262.136 0.628)" fill="#898d91"/>
      <path id="Path_2269" data-name="Path 2269" d="M360.188,171.744a14.122,14.122,0,0,0-3.893,3.43,10.764,10.764,0,0,1-3.847.093,19.818,19.818,0,0,0-3.2-7.277A8.142,8.142,0,0,1,353,172.208a4.966,4.966,0,0,1,1.622-3.244,8.8,8.8,0,0,0-.371,3.2,8.081,8.081,0,0,1,3.708-3.847,18.519,18.519,0,0,0-3.244,6.489,8.61,8.61,0,0,1,5.376-3.059h0Z" transform="translate(-264.059 0.628)" fill="#bdbfc3"/>
      <path id="Path_2270" data-name="Path 2270" d="M351.14,174.068a20.317,20.317,0,0,1,5.515,5.1,16.229,16.229,0,0,0,5.608-.185c.046-.324.788.788.973.51a40.344,40.344,0,0,1,3.893-5.1c.185-.6-4.125,1.761-4.218,2.039-1.02,3.105,2.178-5.886,3.754-7.972-2.039.927-3.94,3.2-5.33,6.3a7.8,7.8,0,0,0-2.317-4.867,14.4,14.4,0,0,1,.51,4.774c-1.437-2.827-3.337-4.959-5.284-5.794a28.525,28.525,0,0,1,4.588,9.687c-2.271-2.642-5.052-4.357-7.647-4.542h0Z" transform="translate(-257.189 2.337)" fill="#898d91"/>
      <path id="Path_2271" data-name="Path 2271" d="M367.65,174.068a20.316,20.316,0,0,0-5.515,5.1,14.532,14.532,0,0,1-5.469.139,31.091,31.091,0,0,0-4.5-10.846c2.039.927,3.94,3.2,5.33,6.3a7.8,7.8,0,0,1,2.318-4.867,14.4,14.4,0,0,0-.51,4.774c1.437-2.827,3.337-4.959,5.284-5.794A28.522,28.522,0,0,0,360,178.564c2.271-2.642,5.052-4.357,7.648-4.542h0Z" transform="translate(-253.445 2.337)" fill="#bdbfc3"/>
      <path id="Path_2272" data-name="Path 2272" d="M354.148,159.164a14.117,14.117,0,0,0-3.893,3.43,10.763,10.763,0,0,1-3.847.093,19.815,19.815,0,0,0-3.2-7.277,8.143,8.143,0,0,1,3.754,4.218,4.966,4.966,0,0,1,1.622-3.244,8.8,8.8,0,0,0-.371,3.2,8.083,8.083,0,0,1,3.708-3.847,18.518,18.518,0,0,0-3.245,6.489,8.61,8.61,0,0,1,5.377-3.059h0Z" transform="translate(-286.014 -45.099)" fill="#bdbfc3"/>
      <path id="Path_2273" data-name="Path 2273" d="M421.91,158.524a23.377,23.377,0,0,1,6.35,3.43,29.829,29.829,0,0,0,6.443-.139c.093-.185.927.51,1.112.371a33.024,33.024,0,0,1,4.5-3.43c.232-.417-4.728,1.159-4.82,1.344-1.159,2.086,2.5-3.94,4.31-5.33a11.512,11.512,0,0,0-6.118,4.218,4.768,4.768,0,0,0-2.688-3.244,5.675,5.675,0,0,1,.6,3.2,12.079,12.079,0,0,0-6.072-3.847,17.668,17.668,0,0,1,5.284,6.489A17.82,17.82,0,0,0,422,158.524h0Z" transform="translate(0.053 -47.425)" fill="#898d91"/>
      <path id="Path_2274" data-name="Path 2274" d="M440.924,158.524a23.375,23.375,0,0,0-6.35,3.43,28.75,28.75,0,0,1-6.3.093,17.937,17.937,0,0,0-5.191-7.277,11.512,11.512,0,0,1,6.118,4.218,4.768,4.768,0,0,1,2.688-3.244,5.673,5.673,0,0,0-.6,3.2,12.079,12.079,0,0,1,6.072-3.847,17.668,17.668,0,0,0-5.284,6.489,17.82,17.82,0,0,1,8.806-3.059h0Z" transform="translate(4.306 -47.425)" fill="#bdbfc3"/>
      <path id="Path_2275" data-name="Path 2275" d="M431.615,160.124a15.325,15.325,0,0,0-4.4,3.43,13.8,13.8,0,0,1-4.357.093,18.832,18.832,0,0,0-3.615-7.277,8.693,8.693,0,0,1,4.264,4.218,4.81,4.81,0,0,1,1.854-3.244,8.774,8.774,0,0,0-.417,3.2,8.714,8.714,0,0,1,4.218-3.847,17.606,17.606,0,0,0-3.662,6.489,10.293,10.293,0,0,1,6.118-3.059Z" transform="translate(-9.652 -41.609)" fill="#bdbfc3"/>
      <path id="Path_2276" data-name="Path 2276" d="M417.9,159.814a15.327,15.327,0,0,1,4.4,3.43,13.8,13.8,0,0,0,4.357.093,18.833,18.833,0,0,1,3.615-7.277,8.694,8.694,0,0,0-4.264,4.218,4.81,4.81,0,0,0-1.854-3.244,8.778,8.778,0,0,1,.417,3.2,8.714,8.714,0,0,0-4.218-3.847,17.6,17.6,0,0,1,3.662,6.489,10.293,10.293,0,0,0-6.118-3.059Z" transform="translate(-14.523 -42.736)" fill="#bdbfc3"/>
      <path id="Path_2277" data-name="Path 2277" d="M432.5,155.414a23.378,23.378,0,0,0-6.35,3.43,29.832,29.832,0,0,1-6.443-.139c-.093-.185-.927.51-1.112.371a33.039,33.039,0,0,0-4.5-3.43c-.232-.417,4.728,1.159,4.82,1.344,1.159,2.086-2.5-3.94-4.31-5.33a11.511,11.511,0,0,1,6.118,4.218,4.768,4.768,0,0,1,2.688-3.244,5.674,5.674,0,0,0-.6,3.2,12.08,12.08,0,0,1,6.072-3.847,17.668,17.668,0,0,0-5.284,6.489,17.821,17.821,0,0,1,8.806-3.059h0Z" transform="translate(-28.378 -58.729)" fill="#898d91"/>
      <path id="Path_2278" data-name="Path 2278" d="M431.209,160.124a15.325,15.325,0,0,0-4.4,3.43,14.26,14.26,0,0,1-4.45-.139c-.046-.185-.649.51-.788.371a25.279,25.279,0,0,0-3.105-3.43c-.139-.417,3.291,1.159,3.384,1.344.834,2.086-1.761-3.94-2.966-5.33a8.694,8.694,0,0,1,4.264,4.218A4.809,4.809,0,0,1,425,157.343a8.778,8.778,0,0,0-.417,3.2,8.714,8.714,0,0,1,4.218-3.847,17.6,17.6,0,0,0-3.662,6.489,10.293,10.293,0,0,1,6.118-3.059h0Z" transform="translate(-12.491 -41.609)" fill="#898d91"/>
      <path id="Path_2279" data-name="Path 2279" d="M431.545,165.174a15.326,15.326,0,0,0-4.4,3.43,13.8,13.8,0,0,1-4.357.093,18.827,18.827,0,0,0-3.615-7.277,8.694,8.694,0,0,1,4.264,4.218,4.809,4.809,0,0,1,1.854-3.244,8.776,8.776,0,0,0-.417,3.2,8.714,8.714,0,0,1,4.218-3.847,17.6,17.6,0,0,0-3.662,6.489,10.292,10.292,0,0,1,6.118-3.059Z" transform="translate(-9.907 -23.253)" fill="#bdbfc3"/>
      <path id="Path_2280" data-name="Path 2280" d="M417.83,164.864a15.326,15.326,0,0,1,4.4,3.43,13.8,13.8,0,0,0,4.357.093,18.829,18.829,0,0,1,3.615-7.277,8.694,8.694,0,0,0-4.264,4.218,4.809,4.809,0,0,0-1.854-3.244,8.777,8.777,0,0,1,.417,3.2,8.715,8.715,0,0,0-4.218-3.847,17.6,17.6,0,0,1,3.662,6.489,10.293,10.293,0,0,0-6.118-3.059Z" transform="translate(-14.777 -24.38)" fill="#bdbfc3"/>
      <path id="Path_2281" data-name="Path 2281" d="M431.149,165.174a15.327,15.327,0,0,0-4.4,3.43,14.259,14.259,0,0,1-4.449-.139c-.046-.185-.649.51-.788.371a25.287,25.287,0,0,0-3.106-3.43c-.139-.417,3.291,1.159,3.384,1.344.834,2.086-1.761-3.94-2.966-5.33a8.693,8.693,0,0,1,4.264,4.218,4.81,4.81,0,0,1,1.854-3.244,8.775,8.775,0,0,0-.417,3.2,8.714,8.714,0,0,1,4.218-3.847,17.605,17.605,0,0,0-3.662,6.489,10.293,10.293,0,0,1,6.118-3.059h0Z" transform="translate(-12.709 -23.253)" fill="#898d91"/>
      <path id="Path_2282" data-name="Path 2282" d="M413.04,155.414a23.376,23.376,0,0,1,6.35,3.43,28.755,28.755,0,0,0,6.3.093,17.936,17.936,0,0,1,5.191-7.277,11.513,11.513,0,0,0-6.118,4.218,4.768,4.768,0,0,0-2.688-3.244,5.675,5.675,0,0,1,.6,3.2,12.081,12.081,0,0,0-6.072-3.847,17.669,17.669,0,0,1,5.284,6.489,17.821,17.821,0,0,0-8.806-3.059h0Z" transform="translate(-32.189 -58.729)" fill="#bdbfc3"/>
      <path id="Path_2283" data-name="Path 2283" d="M418.06,157.014a23.376,23.376,0,0,1,6.35,3.43,28.751,28.751,0,0,0,6.3.093,17.936,17.936,0,0,1,5.191-7.277,11.513,11.513,0,0,0-6.118,4.218,4.767,4.767,0,0,0-2.688-3.244,5.675,5.675,0,0,1,.6,3.2,12.08,12.08,0,0,0-6.072-3.847,17.67,17.67,0,0,1,5.284,6.489,17.821,17.821,0,0,0-8.806-3.059h0Z" transform="translate(-13.941 -52.914)" fill="#bdbfc3"/>
      <path id="Path_2284" data-name="Path 2284" d="M419.38,157.214a23.376,23.376,0,0,1,6.35,3.43,28.754,28.754,0,0,0,6.3.093,17.94,17.94,0,0,1,5.191-7.277,11.512,11.512,0,0,0-6.118,4.218,4.768,4.768,0,0,0-2.688-3.244,5.676,5.676,0,0,1,.6,3.2,12.081,12.081,0,0,0-6.072-3.847,17.669,17.669,0,0,1,5.284,6.489,17.822,17.822,0,0,0-8.806-3.059h0Z" transform="translate(-9.143 -52.187)" fill="#bdbfc3"/>
      <path id="Path_2285" data-name="Path 2285" d="M383.47,170.011a26.453,26.453,0,0,0-7.6,4.728,33.162,33.162,0,0,1-7.74-.185c-.093-.278-1.112.742-1.344.51a45.718,45.718,0,0,0-5.377-4.728c-.278-.556,5.7,1.622,5.84,1.854,1.39,2.874-3.013-5.423-5.145-7.37a13.972,13.972,0,0,1,7.323,5.794,6.367,6.367,0,0,1,3.245-4.45,9.213,9.213,0,0,0-.742,4.4,14.744,14.744,0,0,1,7.323-5.33,23.952,23.952,0,0,0-6.35,8.945,19.264,19.264,0,0,1,10.568-4.171h0Z" transform="translate(-219.903 -10.894)" fill="#898d91"/>
      <path id="Path_2286" data-name="Path 2286" d="M360.13,169.975a26.453,26.453,0,0,1,7.6,4.728,31.789,31.789,0,0,0,7.555.139,24.589,24.589,0,0,1,6.257-10.011,13.973,13.973,0,0,0-7.323,5.794,6.367,6.367,0,0,0-3.244-4.45,9.213,9.213,0,0,1,.742,4.4,14.744,14.744,0,0,0-7.323-5.33,23.954,23.954,0,0,1,6.35,8.945,19.264,19.264,0,0,0-10.568-4.171h0Z" transform="translate(-224.511 -10.858)" fill="#bdbfc3"/>
      <path id="Path_2287" data-name="Path 2287" d="M366.16,172.185a26.453,26.453,0,0,1,7.6,4.728,31.788,31.788,0,0,0,7.555.139,24.589,24.589,0,0,1,6.257-10.011,13.973,13.973,0,0,0-7.323,5.794,6.366,6.366,0,0,0-3.244-4.449,9.213,9.213,0,0,1,.742,4.4,14.744,14.744,0,0,0-7.323-5.33,23.952,23.952,0,0,1,6.35,8.945,19.264,19.264,0,0,0-10.568-4.171h0Z" transform="translate(-202.593 -2.825)" fill="#bdbfc3"/>
      <path id="Path_2288" data-name="Path 2288" d="M367.8,172.175a26.456,26.456,0,0,1,7.6,4.728,31.79,31.79,0,0,0,7.555.139,24.586,24.586,0,0,1,6.257-10.011,13.972,13.972,0,0,0-7.323,5.794,6.367,6.367,0,0,0-3.245-4.45,9.213,9.213,0,0,1,.742,4.4,14.744,14.744,0,0,0-7.323-5.33,23.952,23.952,0,0,1,6.35,8.945,19.265,19.265,0,0,0-10.568-4.171h0Z" transform="translate(-196.632 -2.861)" fill="#bdbfc3"/>
      <path id="Path_2289" data-name="Path 2289" d="M383.134,171.5a16.766,16.766,0,0,0-4.635,3.059,19.052,19.052,0,0,1-4.589.093,16.249,16.249,0,0,0-3.8-6.535,8.7,8.7,0,0,1,4.449,3.8,4.185,4.185,0,0,1,1.947-2.92,5.877,5.877,0,0,0-.417,2.874,8.817,8.817,0,0,1,4.449-3.476,15.306,15.306,0,0,0-3.847,5.84,11.342,11.342,0,0,1,6.443-2.735h0Z" transform="translate(-188.235 1.101)" fill="#bdbfc3"/>
    </g>
    <g id="Group_499" data-name="Group 499" transform="translate(120.532 445.135)" clip-path="url(#clip-path-2)">
      <rect id="Rectangle_431" data-name="Rectangle 431" width="427.537" height="251.674" transform="translate(0.044 -0.047)" fill="rgba(103,168,151,0.73)"/>
      <path id="Intersection_250" data-name="Intersection 250" d="M212.137,251.626c-8.4-.386-18.283-7.388-37.359-14.274,0,0,8.76-3.291,8.76-5.656-19.234,6.491-24.561,4.034-24.561,4.034s-.371-.234-.513-.325c-6.624-4.726-26.881-9.732-41.389-12.84v.142a104.893,104.893,0,0,0-12.1-2.457v-.142c-19.835-3.754-38.561-9.452-43.011-15.709-3.058-4.267-32.862-17.057-34.485-19.651C5.143,182.661,22.058,92.926,0,77.863c0,0,29.292-10.195,46.069-17.194C63.914,53.206,86.624,41.3,105.766,41.3h.138c1.468,0,2.936.09,4.356.225-1.068-1.528-3.009-4.677-3.843-6.019,15.805-5.7,38.423-6.816,49.686-16.268,11.4-9.5,30.5-9.411,56.543-19.143L212.972,0h.138c11.68,4.864,54.554,17.937,64.056,23.172,19.234,10.616,50.382,10.892,73.88,26.743a.142.142,0,0,0-.092.046l-1.068,5.748,14.183-1.573.467.138c4.121,1.251,8.018,2.457,11.63,3.612a5.931,5.931,0,0,1,1.251-.83A4.385,4.385,0,0,0,377,58.12a10.55,10.55,0,0,1,3.988-2.04,13.194,13.194,0,0,0-2.5,2.549,11.641,11.641,0,0,1,4.451-2.269,16.407,16.407,0,0,0-2.92,2.782c1.156.367,2.315.738,3.429,1.11a17.256,17.256,0,0,1,2.966-.463c-.651.234-1.3.509-1.948.788,5.794,1.9,10.846,3.708,15.3,5.331a10.824,10.824,0,0,1,4.451-2.457,14.02,14.02,0,0,0-2.227,2.177,4.939,4.939,0,0,1,1.76,1.76c.371.142.743.279,1.114.417a11.665,11.665,0,0,1,5.469-3.429,16.314,16.314,0,0,0-3.613,4.126c3.938,1.531,7.275,2.966,10.057,4.217a5.414,5.414,0,0,1,1.714-1.3,4.191,4.191,0,0,0-.417,1.064,10.5,10.5,0,0,1,3.984-2.036,12.372,12.372,0,0,0-1.852,2.086,11.069,11.069,0,0,1,3.8-1.81,17.347,17.347,0,0,0-3.617,3.708c.188.092.371.188.559.279.972-.279,1.76-.463,1.669-.279,0,0-.371.234-.976.651l.188.092.275.138.188.092a15.535,15.535,0,0,1,5.285-1.155,20.592,20.592,0,0,0-3.947,1.828,41.122,41.122,0,0,1,3.947,2.343c-11.45,13.9-.6,88.759-4.267,92.279-12.931,12.606-73.692,27.3-94.178,33.233.229,1.481-2.365,2.5,5.514,3.012h.184c-14.412,11.075-24.795,11.309-44.492,15.989-16.085,3.8-20.907,9.965-35.924,15.851-7.692,3.012-31.469,11.959-40.183,12.794-.216.02-.434.035-.652.046ZM402.17,66.7Zm-.7-.279.325.138.322.123a6.187,6.187,0,0,0-.23-.815Z" transform="translate(0 0)" fill="none"/>
    </g>
  </g>
</svg>
